<svg xmlns="http://www.w3.org/2000/svg" xmlns:svg="http://www.w3.org/2000/svg" xmlns:xlink="http://www.w3.org/1999/xlink" id="svg228" width="256" height="256" version="1.1" viewBox="0 0 67.73 67.73"><metadata id="metadata232"/><defs id="defs193"><linearGradient id="linearGradient1739"><stop style="stop-color:#5e49b5;stop-opacity:1" id="stop1733" offset="0"/><stop id="stop1735" offset=".59" style="stop-color:#8b66ec;stop-opacity:1"/><stop style="stop-color:#ab4ddc;stop-opacity:1" id="stop1737" offset="1"/></linearGradient><linearGradient id="linearGradient1110"><stop id="stop1106" offset="0" style="stop-color:#5f4ab8;stop-opacity:1"/><stop style="stop-color:#7471e0;stop-opacity:1" id="stop1112" offset=".476"/><stop id="stop1108" offset="1" style="stop-color:#af51e1;stop-opacity:1"/></linearGradient><linearGradient id="linearGradient1866"><stop id="stop1860" offset="0" style="stop-color:#fd4d55;stop-opacity:1"/><stop style="stop-color:#ef8040;stop-opacity:1" id="stop1862" offset=".551"/><stop id="stop1864" offset="1" style="stop-color:#f0b33c;stop-opacity:1"/></linearGradient><linearGradient id="linearGradient1806"><stop style="stop-color:#e9704a;stop-opacity:1" id="stop1802" offset="0"/><stop id="stop1810" offset=".683" style="stop-color:#f59f3a;stop-opacity:1"/><stop style="stop-color:#f2b943;stop-opacity:1" id="stop1804" offset="1"/></linearGradient><radialGradient id="radialGradient1800" cx="26.617" cy="-2.065" r="23" gradientTransform="matrix(-4.8906e-8,-2.8515,3.7557,0,674.00149,398.26285)" gradientUnits="userSpaceOnUse"><stop style="stop-color:#f5ae48;stop-opacity:1" id="stop1796" offset="0"/><stop id="stop1798" offset="1" style="stop-color:#f8d776;stop-opacity:1"/></radialGradient><radialGradient id="radialGradient1716" cx="26.617" cy="-2.065" r="23" gradientTransform="matrix(-4.8906e-8,-2.8515,3.7557,0,674.00149,398.26285)" gradientUnits="userSpaceOnUse"><stop id="stop1712" offset="0" style="stop-color:#e28847;stop-opacity:1"/><stop style="stop-color:#ea9e42;stop-opacity:1" id="stop1714" offset="1"/></radialGradient><linearGradient id="linearGradient2891"><stop style="stop-color:#4048c1;stop-opacity:1" id="stop2887" offset="0"/><stop style="stop-color:#b137e2;stop-opacity:1" id="stop2889" offset="1"/></linearGradient><linearGradient id="linearGradient2746"><stop style="stop-color:#fd3f58;stop-opacity:1" id="stop2742" offset="0"/><stop id="stop2750" offset=".497" style="stop-color:#fd7b4b;stop-opacity:1"/><stop style="stop-color:#fde873;stop-opacity:.99215686" id="stop2744" offset="1"/></linearGradient><linearGradient id="linearGradient2738"><stop style="stop-color:#fd744c;stop-opacity:0" id="stop2734" offset="0"/><stop id="stop2752" offset=".341" style="stop-color:#fc8e48;stop-opacity:1"/><stop style="stop-color:#f9a779;stop-opacity:1" id="stop2736" offset="1"/></linearGradient><linearGradient id="linearGradient2722"><stop id="stop2718" offset="0" style="stop-color:#fd8a40;stop-opacity:1"/><stop id="stop2720" offset="1" style="stop-color:#fecd86;stop-opacity:1"/></linearGradient><linearGradient id="linearGradient2706"><stop style="stop-color:#feef75;stop-opacity:1" id="stop2702" offset="0"/><stop style="stop-color:#f79a60;stop-opacity:1" id="stop2704" offset="1"/></linearGradient><linearGradient id="linearGradient2690"><stop id="stop2686" offset="0" style="stop-color:#5e5be7;stop-opacity:1"/><stop id="stop2688" offset="1" style="stop-color:#ae36dc;stop-opacity:1"/></linearGradient><clipPath id="clipPath1025" clipPathUnits="userSpaceOnUse"><path style="fill:#e3dfd5" id="path2" d="M 111.94141,84 C 99.359506,84.145 90.1531,83.713998 82.625,87.867188 c -3.7641,2.0768 -6.751838,5.574737 -8.398438,9.960937 C 72.580062,102.21433 72,107.4241 72,114 v 42 h 160 v -26 c 0,-6.5759 -0.57996,-11.78566 -2.22656,-16.17188 -0.205,-0.5455 -0.47919,-1.03993 -0.74219,-1.54296 -0.1,-0.1848 -0.17844,-0.38051 -0.27344,-0.56641 -1.727,-3.38752 -4.25471,-6.14522 -7.38281,-7.87109 C 213.8463,99.694146 204.64049,100.1454 192.05859,100 H 192 151.66797 L 135.45312,84 h -23.49218 z"/></clipPath><clipPath id="clipPath1082-3" clipPathUnits="userSpaceOnUse"><path style="fill:#8c59d9" id="path5" d="M 361.9375,-212 C 507.2348,-212 528,-191.28677 528,-46.125 V 70.125 C 528,215.28618 507.2348,236 361.9375,236 H 214.0625 C 68.7652,236 48,215.28618 48,70.125 V -46.125 C 48,-191.28677 68.7652,-212 214.0625,-212 Z"/></clipPath><clipPath id="clipPath1082-3-5" clipPathUnits="userSpaceOnUse"><path style="fill:#8c59d9" id="path8" d="M 361.9375,-212 C 507.2348,-212 528,-191.28677 528,-46.125 V 70.125 C 528,215.28618 507.2348,236 361.9375,236 H 214.0625 C 68.7652,236 48,215.28618 48,70.125 V -46.125 C 48,-191.28677 68.7652,-212 214.0625,-212 Z"/></clipPath><clipPath id="clipPath1082-3-9" clipPathUnits="userSpaceOnUse"><path style="fill:#8c59d9" id="path11" d="M 361.9375,-212 C 507.2348,-212 528,-191.28677 528,-46.125 V 70.125 C 528,215.28618 507.2348,236 361.9375,236 H 214.0625 C 68.7652,236 48,215.28618 48,70.125 V -46.125 C 48,-191.28677 68.7652,-212 214.0625,-212 Z"/></clipPath><clipPath id="clipPath1082-3-3" clipPathUnits="userSpaceOnUse"><path style="fill:#8c59d9" id="path14" d="M 361.9375,-212 C 507.2348,-212 528,-191.28677 528,-46.125 V 70.125 C 528,215.28618 507.2348,236 361.9375,236 H 214.0625 C 68.7652,236 48,215.28618 48,70.125 V -46.125 C 48,-191.28677 68.7652,-212 214.0625,-212 Z"/></clipPath><clipPath id="clipPath1082-3-53" clipPathUnits="userSpaceOnUse"><path style="fill:#8c59d9" id="path17" d="M 361.9375,-212 C 507.2348,-212 528,-191.28677 528,-46.125 V 70.125 C 528,215.28618 507.2348,236 361.9375,236 H 214.0625 C 68.7652,236 48,215.28618 48,70.125 V -46.125 C 48,-191.28677 68.7652,-212 214.0625,-212 Z"/></clipPath><clipPath id="clipPath1082-3-6" clipPathUnits="userSpaceOnUse"><path style="fill:#8c59d9" id="path20" d="M 361.9375,-212 C 507.2348,-212 528,-191.28677 528,-46.125 V 70.125 C 528,215.28618 507.2348,236 361.9375,236 H 214.0625 C 68.7652,236 48,215.28618 48,70.125 V -46.125 C 48,-191.28677 68.7652,-212 214.0625,-212 Z"/></clipPath><clipPath id="clipPath1082-3-91" clipPathUnits="userSpaceOnUse"><path style="fill:#8c59d9" id="path23" d="M 361.9375,-212 C 507.2348,-212 528,-191.28677 528,-46.125 V 70.125 C 528,215.28618 507.2348,236 361.9375,236 H 214.0625 C 68.7652,236 48,215.28618 48,70.125 V -46.125 C 48,-191.28677 68.7652,-212 214.0625,-212 Z"/></clipPath><clipPath id="clipPath1025-0" clipPathUnits="userSpaceOnUse"><path style="fill:#8c59d9" id="path26" d="M 329.9375,32 C 475.2348,32 496,52.71323 496,197.875 v 116.25 C 496,459.28618 475.2348,480 329.9375,480 H 182.0625 C 36.7652,480 16,459.28618 16,314.125 V 197.875 C 16,52.71323 36.7652,32 182.0625,32 Z"/></clipPath><clipPath id="clipPath4277-8" clipPathUnits="userSpaceOnUse"><rect style="opacity:.81999972;fill:#88b637" id="rect29" width="512" height="512" x="0" y="0" ry="1"/></clipPath><linearGradient id="linearGradient3650-7-9"><stop style="stop-color:#5884f4" id="stop4366" offset="0"/><stop id="stop4368" offset="1" style="stop-color:#80a3fa"/></linearGradient><clipPath id="clipPath1082-3-36" clipPathUnits="userSpaceOnUse"><path style="fill:#8c59d9" id="path35" d="M 361.9375,-212 C 507.2348,-212 528,-191.28677 528,-46.125 V 70.125 C 528,215.28618 507.2348,236 361.9375,236 H 214.0625 C 68.7652,236 48,215.28618 48,70.125 V -46.125 C 48,-191.28677 68.7652,-212 214.0625,-212 Z"/></clipPath><clipPath id="clipPath983" clipPathUnits="userSpaceOnUse"><path style="fill:#4d4d4d" id="path38" d="M 115.03125,44 C 42.3826,44 32,54.356615 32,126.9375 v 58.125 C 32,257.64309 42.3826,268 115.03125,268 H 152 V 44 Z"/></clipPath><clipPath id="clipPath1082-3-62" clipPathUnits="userSpaceOnUse"><path style="fill:#8c59d9" id="path41" d="M 361.9375,-212 C 507.2348,-212 528,-191.28677 528,-46.125 V 70.125 C 528,215.28618 507.2348,236 361.9375,236 H 214.0625 C 68.7652,236 48,215.28618 48,70.125 V -46.125 C 48,-191.28677 68.7652,-212 214.0625,-212 Z"/></clipPath><clipPath id="clipPath949" clipPathUnits="userSpaceOnUse"><path style="fill:#eab305" id="path44" d="M 329.9375,32 C 475.2348,32 496,52.71323 496,197.875 v 116.25 C 496,459.28618 475.2348,480 329.9375,480 H 182.0625 C 36.7652,480 16,459.28618 16,314.125 V 197.875 C 16,52.71323 36.7652,32 182.0625,32 Z"/></clipPath><clipPath id="clipPath954" clipPathUnits="userSpaceOnUse"><path style="fill:#eab305" id="path47" d="M 329.9375,32 C 475.2348,32 496,52.71323 496,197.875 v 116.25 C 496,459.28618 475.2348,480 329.9375,480 H 182.0625 C 36.7652,480 16,459.28618 16,314.125 V 197.875 C 16,52.71323 36.7652,32 182.0625,32 Z"/></clipPath><clipPath id="clipPath1082-3-8" clipPathUnits="userSpaceOnUse"><path style="fill:#8c59d9" id="path50" d="M 361.9375,-212 C 507.2348,-212 528,-191.28677 528,-46.125 V 70.125 C 528,215.28618 507.2348,236 361.9375,236 H 214.0625 C 68.7652,236 48,215.28618 48,70.125 V -46.125 C 48,-191.28677 68.7652,-212 214.0625,-212 Z"/></clipPath><clipPath id="clipPath1082-3-92" clipPathUnits="userSpaceOnUse"><path style="fill:#8c59d9" id="path53" d="M 361.9375,-212 C 507.2348,-212 528,-191.28677 528,-46.125 V 70.125 C 528,215.28618 507.2348,236 361.9375,236 H 214.0625 C 68.7652,236 48,215.28618 48,70.125 V -46.125 C 48,-191.28677 68.7652,-212 214.0625,-212 Z"/></clipPath><clipPath id="clipPath1082" clipPathUnits="userSpaceOnUse"><path style="fill:#8c59d9" id="path56" d="M 361.9375,-212 C 507.2348,-212 528,-191.28677 528,-46.125 V 70.125 C 528,215.28618 507.2348,236 361.9375,236 H 214.0625 C 68.7652,236 48,215.28618 48,70.125 V -46.125 C 48,-191.28677 68.7652,-212 214.0625,-212 Z"/></clipPath><clipPath id="clipPath1082-3-361" clipPathUnits="userSpaceOnUse"><path style="fill:#8c59d9" id="path59" d="M 361.9375,-212 C 507.2348,-212 528,-191.28677 528,-46.125 V 70.125 C 528,215.28618 507.2348,236 361.9375,236 H 214.0625 C 68.7652,236 48,215.28618 48,70.125 V -46.125 C 48,-191.28677 68.7652,-212 214.0625,-212 Z"/></clipPath><clipPath id="clipPath1079" clipPathUnits="userSpaceOnUse"><circle style="fill:url(#linearGradient1083)" id="circle62" cx="213.843" cy="146" r="55" transform="scale(-1,1)"/></clipPath><clipPath id="clipPath984" clipPathUnits="userSpaceOnUse"><circle style="fill:url(#linearGradient1083)" id="circle65" cx="213.843" cy="146" r="55" transform="scale(-1,1)"/></clipPath><clipPath id="clipPath988" clipPathUnits="userSpaceOnUse"><circle style="fill:url(#linearGradient1083)" id="circle68" cx="213.843" cy="146" r="55" transform="scale(-1,1)"/></clipPath><clipPath id="clipPath992" clipPathUnits="userSpaceOnUse"><circle style="fill:url(#linearGradient1083)" id="circle71" cx="213.843" cy="146" r="55" transform="scale(-1,1)"/></clipPath><clipPath id="clipPath1082-3-31" clipPathUnits="userSpaceOnUse"><path style="fill:#8c59d9" id="path74" d="M 361.9375,-212 C 507.2348,-212 528,-191.28677 528,-46.125 V 70.125 C 528,215.28618 507.2348,236 361.9375,236 H 214.0625 C 68.7652,236 48,215.28618 48,70.125 V -46.125 C 48,-191.28677 68.7652,-212 214.0625,-212 Z"/></clipPath><clipPath id="clipPath1205" clipPathUnits="userSpaceOnUse"><path style="fill:#f1f0e9" id="path77" d="M 115.03125,44 C 42.3826,44 32,54.356615 32,126.9375 v 58.125 c 0,13.772 0.379014,25.29352 1.482422,34.9375 H 270.51758 C 271.62099,210.35602 272,198.8345 272,185.0625 v -58.125 C 272,54.356615 261.6174,44 188.96875,44 Z"/></clipPath><clipPath id="clipPath1082-3-4" clipPathUnits="userSpaceOnUse"><path style="fill:#8c59d9" id="path80" d="M 361.9375,-212 C 507.2348,-212 528,-191.28677 528,-46.125 V 70.125 C 528,215.28618 507.2348,236 361.9375,236 H 214.0625 C 68.7652,236 48,215.28618 48,70.125 V -46.125 C 48,-191.28677 68.7652,-212 214.0625,-212 Z"/></clipPath><clipPath id="clipPath1082-3-45" clipPathUnits="userSpaceOnUse"><path style="fill:#8c59d9" id="path83" d="M 361.9375,-212 C 507.2348,-212 528,-191.28677 528,-46.125 V 70.125 C 528,215.28618 507.2348,236 361.9375,236 H 214.0625 C 68.7652,236 48,215.28618 48,70.125 V -46.125 C 48,-191.28677 68.7652,-212 214.0625,-212 Z"/></clipPath><clipPath id="clipPath1082-3-61" clipPathUnits="userSpaceOnUse"><path style="fill:#8c59d9" id="path86" d="M 361.9375,-212 C 507.2348,-212 528,-191.28677 528,-46.125 V 70.125 C 528,215.28618 507.2348,236 361.9375,236 H 214.0625 C 68.7652,236 48,215.28618 48,70.125 V -46.125 C 48,-191.28677 68.7652,-212 214.0625,-212 Z"/></clipPath><clipPath id="clipPath1064" clipPathUnits="userSpaceOnUse"><path style="fill:#a3dbf0" id="path89" d="M 115.03125,44 C 42.3826,44 32,54.356615 32,126.9375 v 58.125 c 0,10.16582 0.217657,19.07051 0.767578,26.9375 3.376331,48.30069 19.790377,56 82.263672,56 h 73.9375 c 62.4733,0 78.88734,-7.69931 82.26367,-56 C 271.78234,204.13301 272,195.22832 272,185.0625 v -58.125 C 272,54.356615 261.6174,44 188.96875,44 Z"/></clipPath><clipPath id="clipPath1082-3-32" clipPathUnits="userSpaceOnUse"><path style="fill:#8c59d9" id="path92" d="M 361.9375,-212 C 507.2348,-212 528,-191.28677 528,-46.125 V 70.125 C 528,215.28618 507.2348,236 361.9375,236 H 214.0625 C 68.7652,236 48,215.28618 48,70.125 V -46.125 C 48,-191.28677 68.7652,-212 214.0625,-212 Z"/></clipPath><clipPath id="clipPath947" clipPathUnits="userSpaceOnUse"><path style="fill:#a4c1f9" id="path95" d="m 191.43333,45.066672 c 77.49189,0 88.56666,11.047056 88.56666,88.466668 v 62 C 279.99999,272.95263 268.92522,284 191.43333,284 H 112.56666 C 35.074773,284 23.999999,272.95263 23.999999,195.53334 v -62 c 0,-77.419612 11.074774,-88.466668 88.566661,-88.466668 z"/></clipPath><clipPath id="clipPath1082-3-55" clipPathUnits="userSpaceOnUse"><path style="fill:#8c59d9" id="path98" d="M 361.9375,-212 C 507.2348,-212 528,-191.28677 528,-46.125 V 70.125 C 528,215.28618 507.2348,236 361.9375,236 H 214.0625 C 68.7652,236 48,215.28618 48,70.125 V -46.125 C 48,-191.28677 68.7652,-212 214.0625,-212 Z"/></clipPath><clipPath id="clipPath991" clipPathUnits="userSpaceOnUse"><path style="fill:#6dc7f1" id="path101" d="M 188.96875,44 C 261.6174,44 272,54.356615 272,126.9375 v 58.125 C 272,257.64309 261.6174,268 188.96875,268 h -73.9375 C 42.3826,268 32,257.64309 32,185.0625 v -58.125 C 32,54.356615 42.3826,44 115.03125,44 Z"/></clipPath><clipPath id="clipPath978" clipPathUnits="userSpaceOnUse"><path style="fill:#6dc7f1" id="path104" d="M 188.96875,44 C 261.6174,44 272,54.356615 272,126.9375 v 58.125 C 272,257.64309 261.6174,268 188.96875,268 h -73.9375 C 42.3826,268 32,257.64309 32,185.0625 v -58.125 C 32,54.356615 42.3826,44 115.03125,44 Z"/></clipPath><clipPath id="clipPath942" clipPathUnits="userSpaceOnUse"><path style="fill:#46a926" id="path107" d="M 188.96875,44 C 261.6174,44 272,54.356615 272,126.9375 v 58.125 C 272,257.64309 261.6174,268 188.96875,268 h -73.9375 C 42.3826,268 32,257.64309 32,185.0625 v -58.125 C 32,54.356615 42.3826,44 115.03125,44 Z"/></clipPath><clipPath id="clipPath1082-3-7" clipPathUnits="userSpaceOnUse"><path style="fill:#8c59d9" id="path110" d="M 361.9375,-212 C 507.2348,-212 528,-191.28677 528,-46.125 V 70.125 C 528,215.28618 507.2348,236 361.9375,236 H 214.0625 C 68.7652,236 48,215.28618 48,70.125 V -46.125 C 48,-191.28677 68.7652,-212 214.0625,-212 Z"/></clipPath><radialGradient id="radialGradient3322" cx="26.617" cy="-2.065" r="23" gradientTransform="matrix(-4.8906e-8,-2.8515,3.7557,0,674.00149,398.26285)" gradientUnits="userSpaceOnUse"><stop id="stop2749" offset="0" style="stop-color:#c02966;stop-opacity:1"/><stop style="stop-color:#d92169;stop-opacity:1" id="stop4269" offset=".221"/><stop id="stop2755" offset="1" style="stop-color:#fde873;stop-opacity:.99215686"/></radialGradient><clipPath id="clipPath1082-3-69" clipPathUnits="userSpaceOnUse"><path style="fill:#8c59d9" id="path117" d="M 361.9375,-212 C 507.2348,-212 528,-191.28677 528,-46.125 V 70.125 C 528,215.28618 507.2348,236 361.9375,236 H 214.0625 C 68.7652,236 48,215.28618 48,70.125 V -46.125 C 48,-191.28677 68.7652,-212 214.0625,-212 Z"/></clipPath><clipPath id="clipPath1082-3-452" clipPathUnits="userSpaceOnUse"><path style="fill:#8c59d9" id="path120" d="M 361.9375,-212 C 507.2348,-212 528,-191.28677 528,-46.125 V 70.125 C 528,215.28618 507.2348,236 361.9375,236 H 214.0625 C 68.7652,236 48,215.28618 48,70.125 V -46.125 C 48,-191.28677 68.7652,-212 214.0625,-212 Z"/></clipPath><clipPath id="clipPath1082-3-74" clipPathUnits="userSpaceOnUse"><path style="fill:#8c59d9" id="path123" d="M 361.9375,-212 C 507.2348,-212 528,-191.28677 528,-46.125 V 70.125 C 528,215.28618 507.2348,236 361.9375,236 H 214.0625 C 68.7652,236 48,215.28618 48,70.125 V -46.125 C 48,-191.28677 68.7652,-212 214.0625,-212 Z"/></clipPath><clipPath id="clipPath1032" clipPathUnits="userSpaceOnUse"><path style="fill:#76c22b" id="path126" d="M 188.96875,44 C 261.6174,44 272,54.356615 272,126.9375 v 58.125 C 272,257.64309 261.6174,268 188.96875,268 h -73.9375 C 42.3826,268 32,257.64309 32,185.0625 v -58.125 C 32,54.356615 42.3826,44 115.03125,44 Z"/></clipPath><clipPath id="clipPath1082-3-0" clipPathUnits="userSpaceOnUse"><path style="fill:#8c59d9" id="path129" d="M 361.9375,-212 C 507.2348,-212 528,-191.28677 528,-46.125 V 70.125 C 528,215.28618 507.2348,236 361.9375,236 H 214.0625 C 68.7652,236 48,215.28618 48,70.125 V -46.125 C 48,-191.28677 68.7652,-212 214.0625,-212 Z"/></clipPath><clipPath id="clipPath1082-3-89" clipPathUnits="userSpaceOnUse"><path style="fill:#8c59d9" id="path132" d="M 361.9375,-212 C 507.2348,-212 528,-191.28677 528,-46.125 V 70.125 C 528,215.28618 507.2348,236 361.9375,236 H 214.0625 C 68.7652,236 48,215.28618 48,70.125 V -46.125 C 48,-191.28677 68.7652,-212 214.0625,-212 Z"/></clipPath><clipPath id="clipPath951" clipPathUnits="userSpaceOnUse"><path style="fill:#8c59d9" id="path135" d="M 188.96875,44 C 261.6174,44 272,54.356615 272,126.9375 v 58.125 C 272,257.64309 261.6174,268 188.96875,268 h -73.9375 C 42.3826,268 32,257.64309 32,185.0625 v -58.125 C 32,54.356615 42.3826,44 115.03125,44 Z"/></clipPath><clipPath id="clipPath1082-3-64" clipPathUnits="userSpaceOnUse"><path style="fill:#8c59d9" id="path138" d="M 361.9375,-212 C 507.2348,-212 528,-191.28677 528,-46.125 V 70.125 C 528,215.28618 507.2348,236 361.9375,236 H 214.0625 C 68.7652,236 48,215.28618 48,70.125 V -46.125 C 48,-191.28677 68.7652,-212 214.0625,-212 Z"/></clipPath><clipPath id="clipPath1082-3-04" clipPathUnits="userSpaceOnUse"><path style="fill:#8c59d9" id="path141" d="M 361.9375,-212 C 507.2348,-212 528,-191.28677 528,-46.125 V 70.125 C 528,215.28618 507.2348,236 361.9375,236 H 214.0625 C 68.7652,236 48,215.28618 48,70.125 V -46.125 C 48,-191.28677 68.7652,-212 214.0625,-212 Z"/></clipPath><clipPath id="clipPath1082-3-1" clipPathUnits="userSpaceOnUse"><path style="fill:#8c59d9" id="path144" d="M 361.9375,-212 C 507.2348,-212 528,-191.28677 528,-46.125 V 70.125 C 528,215.28618 507.2348,236 361.9375,236 H 214.0625 C 68.7652,236 48,215.28618 48,70.125 V -46.125 C 48,-191.28677 68.7652,-212 214.0625,-212 Z"/></clipPath><clipPath id="clipPath936" clipPathUnits="userSpaceOnUse"><path style="fill:#438ae9" id="path147" d="M 329.9375,16 C 475.2348,16 496,36.71323 496,181.875 v 116.25 C 496,443.28618 475.2348,464 329.9375,464 H 182.0625 C 36.7652,464 16,443.28618 16,298.125 V 181.875 C 16,36.71323 36.7652,16 182.0625,16 Z"/></clipPath><clipPath id="clipPath989" clipPathUnits="userSpaceOnUse"><path style="fill:url(#linearGradient993)" id="path150" d="M 115.03124,43.99999 C 42.382604,44 32.000014,54.35661 32.000004,126.9375 v 58.12499 c 0,72.5806 10.38261,82.9375 83.031236,82.9375 h 73.93752 C 261.6174,267.99999 272,257.64307 272,185.06249 V 126.9375 C 272,54.35661 261.6174,44 188.96875,44 Z"/></clipPath><clipPath id="clipPath1082-3-72" clipPathUnits="userSpaceOnUse"><path style="fill:#8c59d9" id="path153" d="M 361.9375,-212 C 507.2348,-212 528,-191.28677 528,-46.125 V 70.125 C 528,215.28618 507.2348,236 361.9375,236 H 214.0625 C 68.7652,236 48,215.28618 48,70.125 V -46.125 C 48,-191.28677 68.7652,-212 214.0625,-212 Z"/></clipPath><clipPath id="clipPath1082-3-06" clipPathUnits="userSpaceOnUse"><path style="fill:#8c59d9" id="path156" d="M 361.9375,-212 C 507.2348,-212 528,-191.28677 528,-46.125 V 70.125 C 528,215.28618 507.2348,236 361.9375,236 H 214.0625 C 68.7652,236 48,215.28618 48,70.125 V -46.125 C 48,-191.28677 68.7652,-212 214.0625,-212 Z"/></clipPath><clipPath id="clipPath1082-3-59" clipPathUnits="userSpaceOnUse"><path style="fill:#8c59d9" id="path159" d="M 361.9375,-212 C 507.2348,-212 528,-191.28677 528,-46.125 V 70.125 C 528,215.28618 507.2348,236 361.9375,236 H 214.0625 C 68.7652,236 48,215.28618 48,70.125 V -46.125 C 48,-191.28677 68.7652,-212 214.0625,-212 Z"/></clipPath><clipPath id="clipPath1221" clipPathUnits="userSpaceOnUse"><path style="opacity:.1;fill:#da1636" id="path162" d="M 188.96875,44 C 261.6174,44 272,54.356615 272,126.9375 v 58.125 C 272,257.64309 261.6174,268 188.96875,268 h -73.9375 C 42.3826,268 32,257.64309 32,185.0625 v -58.125 C 32,54.356615 42.3826,44 115.03125,44 Z"/></clipPath><clipPath id="clipPath936-0" clipPathUnits="userSpaceOnUse"><path style="fill:#438ae9" id="path165" d="M 329.9375,16 C 475.2348,16 496,36.71323 496,181.875 v 116.25 C 496,443.28618 475.2348,464 329.9375,464 H 182.0625 C 36.7652,464 16,443.28618 16,298.125 V 181.875 C 16,36.71323 36.7652,16 182.0625,16 Z"/></clipPath><clipPath id="clipPath1082-3-367" clipPathUnits="userSpaceOnUse"><path style="fill:#8c59d9" id="path168" d="M 361.9375,-212 C 507.2348,-212 528,-191.28677 528,-46.125 V 70.125 C 528,215.28618 507.2348,236 361.9375,236 H 214.0625 C 68.7652,236 48,215.28618 48,70.125 V -46.125 C 48,-191.28677 68.7652,-212 214.0625,-212 Z"/></clipPath><clipPath id="clipPath1221-5" clipPathUnits="userSpaceOnUse"><path style="opacity:.1;fill:#da1636" id="path171" d="M 188.96875,44 C 261.6174,44 272,54.356615 272,126.9375 v 58.125 C 272,257.64309 261.6174,268 188.96875,268 h -73.9375 C 42.3826,268 32,257.64309 32,185.0625 v -58.125 C 32,54.356615 42.3826,44 115.03125,44 Z"/></clipPath><clipPath id="clipPath936-2" clipPathUnits="userSpaceOnUse"><path style="fill:#438ae9" id="path174" d="M 329.9375,16 C 475.2348,16 496,36.71323 496,181.875 v 116.25 C 496,443.28618 475.2348,464 329.9375,464 H 182.0625 C 36.7652,464 16,443.28618 16,298.125 V 181.875 C 16,36.71323 36.7652,16 182.0625,16 Z"/></clipPath><filter style="color-interpolation-filters:sRGB" id="filter1140" width="2.62" height="2.62" x="-.81" y="-.81"><feGaussianBlur id="feGaussianBlur1142" stdDeviation="2.7"/></filter><filter style="color-interpolation-filters:sRGB" id="filter1136" width="2.62" height="2.62" x="-.81" y="-.81"><feGaussianBlur id="feGaussianBlur1138" stdDeviation="2.7"/></filter><filter style="color-interpolation-filters:sRGB" id="filter1132" width="2.62" height="2.62" x="-.81" y="-.81"><feGaussianBlur id="feGaussianBlur1134" stdDeviation="2.7"/></filter><filter style="color-interpolation-filters:sRGB" id="filter1128" width="2.62" height="2.62" x="-.81" y="-.81"><feGaussianBlur id="feGaussianBlur1130" stdDeviation="2.7"/></filter><linearGradient id="linearGradient11065" x1="104" x2="200" y1="44" y2="268" gradientTransform="matrix(0.26458333,0,0,0.26458333,-6.1510329,220.60103)" gradientUnits="userSpaceOnUse" xlink:href="#linearGradient4195"/><linearGradient id="linearGradient4195"><stop style="stop-color:#8c59d9" id="stop4197" offset="0"/><stop style="stop-color:#a7a7f1" id="stop4199" offset="1"/></linearGradient><filter style="color-interpolation-filters:sRGB" id="filter11191" width="1.024" height="1.024" x="-.01" y="-.01"><feGaussianBlur id="feGaussianBlur11193" stdDeviation="1.12"/></filter><filter style="color-interpolation-filters:sRGB" id="filter11210" width="1.096" height="1.096" x="-.05" y="-.05"><feGaussianBlur id="feGaussianBlur11212" stdDeviation="4.48"/></filter><radialGradient id="radial-gradient-367" cx="-14480.522" cy="-8329.079" r="450.875" fx="-14509.281" gradientTransform="matrix(0.02430834,0.00108462,-0.00159504,0.03572879,346.13194,584.42783)" gradientUnits="userSpaceOnUse"><stop id="stop993" offset=".045" stop-color="#ffea00"/><stop id="stop995" offset=".12" stop-color="#ffde00"/><stop id="stop997" offset=".254" stop-color="#ffbf00"/><stop id="stop999" offset=".429" stop-color="#ff8e00"/><stop id="stop1001" offset=".769" stop-color="#ff272d"/><stop id="stop1003" offset=".872" stop-color="#e0255a"/><stop id="stop1005" offset=".953" stop-color="#cc2477"/><stop id="stop1007" offset="1" stop-color="#c42482"/></radialGradient><radialGradient id="radial-gradient-3-3" cx="-8260.94" cy="-6516.556" r="266.886" gradientTransform="matrix(0.03888695,0.00392379,-0.00392379,0.03888695,311.314,557.10584)" gradientUnits="userSpaceOnUse"><stop id="stop1034" offset=".003" stop-color="#ffea00"/><stop id="stop1036" offset=".497" stop-color="#ff272d"/><stop id="stop1038" offset="1" stop-color="#c42482"/></radialGradient><radialGradient id="radial-gradient-4-5" cx="-8285.087" cy="-6772.468" r="445.678" gradientTransform="matrix(0.03532703,-0.016721,0.016721,0.03532703,398.48604,361.76119)" gradientUnits="userSpaceOnUse"><stop id="stop1041" offset=".003" stop-color="#ffe900"/><stop id="stop1043" offset=".157" stop-color="#ffaf0e"/><stop id="stop1045" offset=".316" stop-color="#ff7a1b"/><stop id="stop1047" offset=".472" stop-color="#ff4e26"/><stop id="stop1049" offset=".621" stop-color="#ff2c2e"/><stop id="stop1051" offset=".762" stop-color="#ff1434"/><stop id="stop1053" offset=".892" stop-color="#ff0538"/><stop id="stop1055" offset="1" stop-color="#ff0039"/></radialGradient><radialGradient id="radial-gradient-5-6" cx="-8222.051" cy="-6359.332" r="408.958" gradientTransform="matrix(0.03888695,0.00392379,-0.00392379,0.03888695,311.314,557.10584)" gradientUnits="userSpaceOnUse"><stop id="stop1058" offset=".003" stop-color="#ff272d"/><stop id="stop1060" offset=".497" stop-color="#c42482"/><stop id="stop1062" offset=".986" stop-color="#620700"/></radialGradient><radialGradient id="radial-gradient-6-2" cx="750.189" cy="396.041" r="782.18" fx="778.167" fy="382.212" gradientTransform="matrix(0.0319007,0,0,0.0319007,-17.144101,250.94746)" gradientUnits="userSpaceOnUse"><stop id="stop1065" offset=".156" stop-color="#ffea00"/><stop id="stop1067" offset=".231" stop-color="#ffde00"/><stop id="stop1069" offset=".365" stop-color="#ffbf00"/><stop id="stop1071" offset=".541" stop-color="#ff8e00"/><stop id="stop1073" offset=".763" stop-color="#ff272d"/><stop id="stop1075" offset=".796" stop-color="#f92433"/><stop id="stop1077" offset=".841" stop-color="#e91c45"/><stop id="stop1079" offset=".893" stop-color="#cf0e62"/><stop id="stop1081" offset=".935" stop-color="#b5007f"/></radialGradient><radialGradient id="radial-gradient-7-9" cx="691.339" cy="3.289" r="923.615" gradientTransform="matrix(0.14704,0,0,0.14704,-224.38299,81.351871)" gradientUnits="userSpaceOnUse"><stop id="stop1084" offset=".279" stop-color="#ffea00"/><stop id="stop1086" offset=".402" stop-color="#fd0"/><stop id="stop1088" offset=".63" stop-color="#ffba00"/><stop id="stop1090" offset=".856" stop-color="#ff9100"/><stop id="stop1092" offset=".933" stop-color="#ff6711"/><stop id="stop1094" offset=".994" stop-color="#ff4a1d"/></radialGradient><linearGradient id="linear-gradient-2" x1="-8944.65" x2="-8660.289" y1="-6677.742" y2="-6750.226" gradientTransform="matrix(0.03888695,0.00392379,-0.00392379,0.03888695,311.314,557.10584)" gradientUnits="userSpaceOnUse"><stop id="stop106" offset="0" stop-color="#c42482" stop-opacity=".5"/><stop id="stop108" offset=".474" stop-color="#ff272d" stop-opacity=".5"/><stop id="stop110" offset=".486" stop-color="#ff2c2c" stop-opacity=".513"/><stop id="stop112" offset=".675" stop-color="#ff7a1a" stop-opacity=".72"/><stop id="stop114" offset=".829" stop-color="#ffb20d" stop-opacity=".871"/><stop id="stop116" offset=".942" stop-color="#ffd605" stop-opacity=".964"/><stop id="stop118" offset="1" stop-color="#ffe302"/></linearGradient><linearGradient id="linear-gradient-3" x1="245.347" x2="190.775" y1="-1082.012" y2="-1221.859" gradientTransform="matrix(0.0317412,0.00319007,-0.00319007,0.0317412,-22.685125,292.8631)" gradientUnits="userSpaceOnUse"><stop id="stop121" offset="0" stop-color="#891551" stop-opacity=".6"/><stop id="stop123" offset="1" stop-color="#c42482" stop-opacity="0"/></linearGradient><linearGradient id="linear-gradient-4" x1="22.04" x2="116.148" y1="718.827" y2="825.714" gradientTransform="matrix(0.0317412,0.00319007,-0.00319007,0.0317412,-7.4003833,243.08486)" gradientUnits="userSpaceOnUse"><stop id="stop126" offset=".005" stop-color="#891551" stop-opacity=".5"/><stop id="stop128" offset=".484" stop-color="#ff272d" stop-opacity=".5"/><stop id="stop130" offset="1" stop-color="#ff272d" stop-opacity="0"/></linearGradient><linearGradient id="linear-gradient-5" x1="200.104" x2="200.171" y1="904.616" y2="829.835" gradientTransform="matrix(0.0317412,0.00319007,-0.00319007,0.0317412,-4.2434765,240.93242)" gradientUnits="userSpaceOnUse"><stop id="stop133" offset="0" stop-color="#c42482"/><stop id="stop135" offset=".083" stop-color="#c42482" stop-opacity=".81"/><stop id="stop137" offset=".206" stop-color="#c42482" stop-opacity=".565"/><stop id="stop139" offset=".328" stop-color="#c42482" stop-opacity=".362"/><stop id="stop141" offset=".447" stop-color="#c42482" stop-opacity=".204"/><stop id="stop143" offset=".562" stop-color="#c42482" stop-opacity=".091"/><stop id="stop145" offset=".673" stop-color="#c42482" stop-opacity=".023"/><stop id="stop147" offset=".773" stop-color="#c42482" stop-opacity="0"/></linearGradient><linearGradient id="linear-gradient-7" x1="715.885" x2="571.098" y1="431.21" y2="819.96" gradientTransform="matrix(0.0319007,0,0,0.0319007,-17.144101,250.94746)" gradientUnits="userSpaceOnUse"><stop id="stop169" offset="0" stop-color="#ff8e00"/><stop id="stop171" offset=".04" stop-color="#ff8e00" stop-opacity=".858"/><stop id="stop173" offset=".084" stop-color="#ff8e00" stop-opacity=".729"/><stop id="stop175" offset=".13" stop-color="#ff8e00" stop-opacity=".628"/><stop id="stop177" offset=".178" stop-color="#ff8e00" stop-opacity=".557"/><stop id="stop179" offset=".227" stop-color="#ff8e00" stop-opacity=".514"/><stop id="stop181" offset=".282" stop-color="#ff8e00" stop-opacity=".5"/><stop id="stop183" offset=".389" stop-color="#ff8e00" stop-opacity=".478"/><stop id="stop185" offset=".524" stop-color="#ff8e00" stop-opacity=".416"/><stop id="stop187" offset=".676" stop-color="#ff8e00" stop-opacity=".314"/><stop id="stop189" offset=".838" stop-color="#ff8e00" stop-opacity=".172"/><stop id="stop191" offset="1" stop-color="#ff8e00" stop-opacity="0"/></linearGradient><radialGradient id="radialGradient1095" cx="25.661" cy="81.989" r="50.711" fx="25.661" fy="81.989" gradientTransform="matrix(0.29486263,0.53797558,-0.29256822,0.16057217,53.690936,-22.345225)" gradientUnits="userSpaceOnUse" xlink:href="#linearGradient1103"/><linearGradient id="linearGradient1103"><stop id="stop1097" offset="0" style="stop-color:#af46d2;stop-opacity:1"/><stop style="stop-color:#755ade;stop-opacity:1" id="stop1099" offset=".873"/><stop id="stop1101" offset="1" style="stop-color:#6c4998;stop-opacity:1"/></linearGradient><radialGradient id="radialGradient2694" cx="-10.382" cy="261.476" r="6.997" fx="-10.382" fy="261.476" gradientTransform="matrix(0.77525943,-0.29941766,0.39188024,1.0146657,-104.28468,-6.6204985)" gradientUnits="userSpaceOnUse" xlink:href="#linearGradient2690"/><linearGradient id="linearGradient2708" x1="-6.534" x2=".009" y1="246.884" y2="260.022" gradientTransform="matrix(2.1727956,0,0,2.1727956,54.386018,-300.43141)" gradientUnits="userSpaceOnUse" xlink:href="#linearGradient2706"/><radialGradient id="radialGradient2724" cx="-35.758" cy="108.978" r="24.801" fx="-35.758" fy="108.978" gradientTransform="matrix(0.14623872,-2.7370371,2.1067443,0.11256244,-68.141056,64.612855)" gradientUnits="userSpaceOnUse" xlink:href="#linearGradient2722"/><radialGradient id="radialGradient2732" cx="-30.772" cy="110.4" r="29.632" fx="-30.772" fy="110.4" gradientTransform="matrix(2.1067669,0.58807483,-0.38718589,1.3870861,74.210229,-28.735753)" gradientUnits="userSpaceOnUse" xlink:href="#radialGradient3322"/><radialGradient id="radialGradient2748" cx="-65.551" cy="143.331" r="49.948" fx="-65.551" fy="143.331" gradientTransform="matrix(2.7515028,1.0276166,-1.1745814,3.1450096,412.08951,-201.96109)" gradientUnits="userSpaceOnUse" xlink:href="#linearGradient2746"/><radialGradient id="radialGradient2762" cx="-65.551" cy="143.331" r="49.948" fx="-65.551" fy="143.331" gradientTransform="matrix(0.7975448,0.04705075,-0.0590377,1.0007325,-34.026858,-88.831414)" gradientUnits="userSpaceOnUse" xlink:href="#linearGradient2746"/><linearGradient id="linearGradient2822" x1="-21.724" x2="-10.303" y1="254.418" y2="257.76" gradientTransform="matrix(3.7797136,0,0,3.7797136,0,-866.56231)" gradientUnits="userSpaceOnUse" xlink:href="#linearGradient2738"/><linearGradient id="linearGradient2919" x1="-6.534" x2=".009" y1="246.884" y2="260.022" gradientTransform="matrix(8.1992041,0,0,8.1992041,-93.658751,-1993.2272)" gradientUnits="userSpaceOnUse" xlink:href="#linearGradient2706"/><radialGradient id="radialGradient2921" cx="-10.382" cy="261.476" r="6.997" fx="-10.382" fy="261.476" gradientTransform="matrix(1.5631095,-1.7224705,1.3294216,1.2064251,-378.68436,-64.204712)" gradientUnits="userSpaceOnUse" xlink:href="#linearGradient2891"/><radialGradient id="radialGradient1708" cx="-91.032" cy="68.006" r="3.419" fx="-91.032" fy="68.006" gradientTransform="matrix(1.548182,1.151356,-1.1403864,1.5334317,187.99761,69.321724)" gradientUnits="userSpaceOnUse" xlink:href="#radialGradient1716"/><radialGradient id="radialGradient1775" cx="-65.551" cy="143.331" r="49.948" fx="-65.551" fy="143.331" gradientTransform="matrix(2.7515028,1.0276166,-1.1745814,3.1450096,412.08951,-201.96109)" gradientUnits="userSpaceOnUse" xlink:href="#linearGradient2746"/><radialGradient id="radialGradient1794" cx="14.788" cy="258.598" r="10.41" fx="14.788" fy="258.598" gradientTransform="matrix(0.98351004,1.2914619,-1.117953,0.85137462,289.37264,18.942696)" gradientUnits="userSpaceOnUse" xlink:href="#radialGradient1800"/><radialGradient id="radialGradient1808" cx="10.066" cy="266.981" r="14.18" fx="10.066" fy="266.981" gradientTransform="matrix(0.6118968,1.7038402,-1.5238712,0.54726496,406.55051,94.446816)" gradientUnits="userSpaceOnUse" xlink:href="#linearGradient1806"/><radialGradient id="radialGradient1858" cx="21.409" cy="265.958" r="14.18" fx="21.409" fy="265.958" gradientTransform="matrix(1.6208443,0.81303583,-0.89985956,1.7939338,219.91101,-222.82105)" gradientUnits="userSpaceOnUse" xlink:href="#linearGradient1866"/><radialGradient id="radialGradient1873" cx="-65.551" cy="143.331" r="49.948" fx="-65.551" fy="143.331" gradientTransform="matrix(2.7515028,1.0276166,-1.1745814,3.1450096,412.08951,-201.96109)" gradientUnits="userSpaceOnUse" xlink:href="#linearGradient2746"/><radialGradient id="radialGradient1731" cx="25.787" cy="271.837" r="15.202" fx="25.787" fy="271.837" gradientTransform="matrix(1.6224258,0.14665607,-0.13822995,1.5292094,21.525761,-147.64041)" gradientUnits="userSpaceOnUse" xlink:href="#linearGradient1739"/></defs><g id="layer1" transform="translate(0,-229.26666)"><path style="opacity:.98999999;fill:url(#linearGradient2708);fill-opacity:1;stroke-width:.08452701" id="path1202" d="m 41.71255,232.66153 c 0,0 -13.554436,11.71803 -9.298768,23.12679 3.264314,8.75108 11.351194,10.09024 17.545497,15.60984 l 3.402384,-0.71781 c 0,0 5.977824,-14.6464 5.510146,-15.89354 -0.1285,-0.34268 -0.330046,-1.39579 -0.551278,-2.68566 -1.735288,-2.20991 -3.645595,-4.15346 -5.736224,-6.07419 -8.498671,-7.80741 -10.871763,-11.29273 -10.871757,-13.36543 z"/><circle id="circle1069" cx="33.979" cy="263.401" r="15.202" style="fill:url(#radialGradient1731);fill-opacity:1;stroke-width:.5130111"/><g id="g1091" transform="matrix(0.97423019,0,0,0.97423019,48.221016,180.83923)" style="fill:#fd8a40;fill-opacity:1"><path id="path1054" d="m -44.933808,84.471552 c 0,16.376278 13.2666,29.651868 29.6319,29.651868 16.3652003,0 29.6318,-13.27559 29.6318,-29.651868 0,-1.724308 -0.1534,-3.445184 -0.4538,-5.143085 0.039,0.579991 0.06,1.161095 0.062,1.742415 -3e-4,15.075943 -12.2136997,27.297218 -27.2795,27.296988 -15.0654,-2.3e-4 -27.2783,-12.22137 -27.2785,-27.296988 4e-4,-1.626968 1.106215,-2.729505 1.1853,-3.844405 0.246151,-3.470084 3.89966,-5.360227 5.045474,-7.835526 0.821354,-1.774369 0.262596,-4.682256 0.0015,-6.633942 -9.088464,5.556891 -10.425867,14.71202 -10.546174,21.714543 z" style="opacity:1;fill:url(#radialGradient2732);fill-opacity:1;stroke:none;stroke-width:.25303641;stroke-linecap:round;stroke-linejoin:bevel;stroke-miterlimit:4;stroke-dasharray:none;stroke-dashoffset:0;stroke-opacity:1;enable-background:new"/><path style="opacity:1;fill:url(#radialGradient2724);fill-opacity:1;stroke:none;stroke-width:1.320032;stroke-linecap:round;stroke-linejoin:bevel;stroke-miterlimit:4;stroke-dasharray:none;stroke-dashoffset:0;stroke-opacity:1;enable-background:new" id="path1070" d="m 156.11328,91.441406 c -0.4391,-0.0067 -0.87815,-0.0044 -1.32031,0.0059 -2.92743,0.06768 -5.9237,0.510128 -8.95313,1.359375 0,0 1.67623,1.541148 2.40625,2.199218 8.99168,4.305014 16.02941,11.463831 20.24414,20.087891 3.5451,6.1282 5.39754,12.92651 5.40235,19.82617 -0.007,13.30745 -6.87063,25.86966 -18.60547,34.05274 -4.79567,3.54837 -10.34987,6.12539 -16.37305,7.45703 -3.40603,0.87619 -6.90953,1.41459 -10.44726,1.60547 -31.525363,2.60493 -8.04873,5.31881 18.77158,1.70178 20.83285,-2.80956 44.08733,-9.90305 48.86318,-15.90882 9.0655,-38.14355 -12.32502,-71.963268 -39.98828,-72.386714 z" transform="matrix(0.27201045,0,0,0.27201045,-49.589112,49.928956)"/><path style="opacity:1;fill:url(#radialGradient1873);fill-opacity:1;stroke:none;stroke-width:.85868442;stroke-linecap:round;stroke-linejoin:bevel;stroke-miterlimit:4;stroke-dasharray:none;stroke-dashoffset:0;stroke-opacity:1;enable-background:new" id="circle1061" d="M 55.886719,47.160156 C 50.759695,50.684487 45.503922,54.280444 41.421875,58.404297 -12.2683,112.64435 24.437288,222.03743 133.15039,225.73828 c 55.53685,5.9e-4 100.55349,-53.53723 100.55273,-109.11133 -0.002,-1.76394 -0.14332,-3.34544 -0.2207,-5.00781 -0.0759,-0.67132 -0.15741,-1.34387 -0.24609,-2.01367 -0.61705,-3.54723 -1.41339,-7.05891 -2.38477,-10.527345 -0.97129,-3.467691 -2.11586,-6.885935 -3.43164,-10.240234 -1.31639,-3.354768 -2.8014,-6.6438 -4.44922,-9.851563 -1.6474,-3.207492 -3.45566,-6.33088 -5.41797,-9.359375 -1.33364,-1.983709 -2.7321,-3.920614 -4.19531,-5.8125 -2.20961,-2.514544 -4.56605,-5.066586 -7.16015,-7.71875 7.41257,25.855264 8.66256,37.200557 8.00781,56.230467 -2.2933,26.51017 -21.50811,54.49699 -49.04883,62.33985 -8.34024,2.93973 -17.48412,4.57812 -26.94141,4.57812 -16.03592,0 -31.7222,-2.24033 -42.453121,-10.07226 -1.724016,-1.25827 -3.328292,-2.64221 -4.822266,-4.13086 A 48.316468,43.207786 0 0 1 77.574219,139.40234 C 76.697867,135.26262 76.25,131.02356 76.25,126.81445 c 0,-10.48562 3.665405,-20.25689 9.972656,-28.503903 1.355801,-22.064825 1.413928,-34.697856 0.316406,-45.287109 -12.472021,9.395949 -15.707706,11.75051 -26.107421,21.458984 -0.54923,0.512723 -3.947446,-27.779384 -4.544922,-27.322266 z" transform="matrix(0.27201045,0,0,0.27201045,-49.589112,49.928956)"/><path style="fill:url(#radialGradient1708);fill-opacity:1;stroke:none;stroke-width:.27201045px;stroke-linecap:butt;stroke-linejoin:miter;stroke-opacity:1" id="path1692" d="m -33.519209,70.450949 c 2.200263,-2.243446 4.911295,-4.151263 7.469626,-6.099064 0.129492,1.347288 0.324641,4.325781 0.107764,8.667775 -2.332609,-2.224205 -7.684442,-1.25413 -7.57739,-2.568711 z"/><path style="opacity:.2;fill:#000;fill-opacity:1;stroke:none;stroke-width:.3550415;stroke-linecap:round;stroke-linejoin:bevel;stroke-miterlimit:4;stroke-dasharray:none;stroke-dashoffset:0;stroke-opacity:1;enable-background:new" id="path1885" d="m -7.5959127,74.801987 c -0.1172173,-0.0018 -0.2344213,-0.0012 -0.3524555,0.0016 -0.7814746,0.01834 -1.581326,0.138242 -2.3900298,0.368383 0,0 0.4474684,0.417644 0.6423464,0.595978 2.4003204,1.166635 4.2790357,3.106634 5.4041537,5.443707 0.9463611,1.660708 1.4408682,3.503013 1.4421523,5.372783 -0.00187,3.606246 -1.8341082,7.010534 -4.9667125,9.228104 -0.6591451,0.4951 -1.3728601,0.919066 -2.1288144,1.264464 -2.9071285,0.899981 -6.0686785,1.22109 -8.6283985,0.743118 -1.303542,-0.23734 -2.547236,-0.676041 -3.525082,-1.1639 -0.474704,-0.236835 -1.206736,-0.756302 -1.811291,-1.214183 -0.204956,-0.155231 -0.358858,-0.277924 -0.521385,-0.405963 -0.52925,-0.667792 -1.547102,-1.90394 -2.399413,-3.312802 -0.780275,-1.289784 -1.221836,-2.963739 -1.342044,-3.510224 -0.222918,-1.013424 0.07287,-2.37455 0.931193,-3.143961 0.519454,-0.465647 1.221038,-0.983754 1.810769,-1.307335 0.847193,-0.464872 1.870859,-0.602878 2.793059,-0.852681 1.316965,-0.356737 2.756397,-0.262678 4.012579,-0.799751 1.072646,-0.458602 2.444479,-0.913522 2.874916,-2.011286 0.123653,-0.315357 0.108784,-1.08201 -0.164238,-1.074451 -0.01821,5.42e-4 -0.03787,0.0041 -0.0584,0.01216 -0.102784,0.03882 -0.210725,0.07437 -0.323259,0.106915 0.117251,0.224299 0.105618,0.716593 0.01199,0.955363 -0.430437,1.097765 -1.802269,1.552685 -2.874917,2.011287 -1.256184,0.537072 -2.695613,0.443013 -4.012578,0.799751 -0.922198,0.249803 -1.945865,0.387809 -2.793059,0.852681 -0.58973,0.323581 -1.291316,0.841687 -1.81077,1.307335 -0.858324,0.76941 -1.15411,2.130537 -0.931193,3.143961 0.12021,0.546484 2.419698,6.935648 1.342045,3.510224 1.026942,1.237566 1.640101,2.97645 2.941653,3.659484 0.121826,0.09477 0.214976,0.16992 0.354021,0.275229 0.60931,0.461481 1.338639,0.984823 1.853524,1.241708 1.001328,0.499574 2.263274,0.944388 3.593905,1.186657 2.892361,0.447572 4.364406,0.459555 6.968307,-0.252998 0.349057,-0.07834 0.691185,-0.175366 1.02765,-0.284756 1.2345056,-0.299678 2.3829684,-1.020719 3.3431201,-1.736057 3.1326043,-2.21757 4.9648463,-5.621859 4.9667123,-9.228106 -0.00133,-1.86977 -0.4957911,-3.712074 -1.4421521,-5.372782 -1.1251182,-2.337073 -3.0038334,-4.277072 -5.4041537,-5.443708 -0.1948782,-0.178334 -0.6423462,-0.595977 -0.6423462,-0.595977 0.7831191,-0.222859 1.5576049,-0.340157 2.3154706,-0.364149 -0.035814,-9.75e-4 -0.07099,-0.0053 -0.1068837,-0.0058 z m -24.6922653,2.267462 c -0.05441,4.07e-4 -0.108816,0.0033 -0.163192,0.0053 1.38428,0.03534 2.763234,0.313361 3.957832,0.551516 1.788971,0.358141 3.458737,1.299593 5.271722,1.541282 1.20601,0.160771 2.602399,0.282782 3.889532,0.267817 -1.132148,-0.01905 -2.315423,-0.12915 -3.355634,-0.267817 -1.812984,-0.241689 -3.482751,-1.183141 -5.271723,-1.541282 -1.301315,-0.259439 -2.821131,-0.567843 -4.328537,-0.55628 z"/></g><path style="fill:#040404;fill-opacity:0;stroke:none;stroke-width:.5960061px;stroke-linecap:butt;stroke-linejoin:miter;stroke-opacity:1" id="path2818" d="m 19.548773,249.81574 c -0.684695,-0.0184 -1.398595,0.20132 -2.089473,0.22006 -1.437523,0.0357 -2.883935,-0.11341 -4.313674,0.0539 -1.360948,0.15929 -2.756518,0.33254 -4.0228766,0.90046 -0.7130814,0.31975 -1.7682465,0.55556 -1.937898,1.37764 -0.4214427,2.04221 1.5388026,4.00532 3.0045276,5.35224 0.771671,0.70913 1.84532,0.90485 2.81141,1.21932 0.972466,0.31653 1.952949,0.61956 2.939407,0.89934 0.22815,0.2983 0.501193,0.57025 0.765728,0.83085 0.552209,0.54393 1.190902,1.01097 1.875023,1.37538 0.79498,0.42346 1.925696,0.26038 2.541946,0.9173 l 2.186029,5.01317 c -0.213093,-1.35081 -0.696743,-3.28117 0.272832,-5.05583 0.334137,-0.43358 0.843234,-0.7127 1.332726,-0.95772 0.703192,-0.35199 1.482343,-0.54312 2.25115,-0.70846 1.148781,-0.24704 2.430329,0.0705 3.499668,-0.41655 0.545911,-0.24863 1.333849,-1.20923 1.333849,-1.20923 l 0.09656,-1.006 c 0,0 -2.773352,-1.44194 -4.071157,-2.33199 -1.448018,-0.99307 -2.749129,-2.22197 -4.119436,-3.3391 -1.230405,-1.00312 -2.219523,-2.51755 -3.683801,-3.02025 -0.219777,-0.0754 -0.444307,-0.10839 -0.672536,-0.11452 z"/><path id="path2915" d="m 19.548773,249.81574 c -0.684695,-0.0184 -1.398595,0.20132 -2.089473,0.22006 -1.437523,0.0357 -2.883935,-0.11341 -4.313674,0.0539 -1.360948,0.15929 -2.756518,0.33254 -4.0228764,0.90046 -0.7130814,0.31975 -1.7682465,0.55556 -1.937898,1.37764 -0.4214427,2.04221 1.5388026,4.00532 3.0045274,5.35224 0.771671,0.70913 1.84532,0.90485 2.81141,1.21932 0.972466,0.31653 1.952949,0.61956 2.939407,0.89934 0.22815,0.2983 0.501193,0.57025 0.765728,0.83085 0.552209,0.54393 1.190902,1.01097 1.875023,1.37538 0.79498,0.42346 1.925696,0.26038 2.541946,0.9173 l 2.186029,5.01317 c -0.213093,-1.35081 -0.696743,-3.28117 0.272832,-5.05583 0.334137,-0.43358 0.843234,-0.7127 1.332726,-0.95772 0.703192,-0.35199 1.482343,-0.54312 2.25115,-0.70846 1.148781,-0.24704 2.430329,0.0705 3.499668,-0.41655 0.545911,-0.24863 1.333849,-1.20923 1.333849,-1.20923 l 0.09656,-1.006 c 0,0 -2.773352,-1.44194 -4.071157,-2.33199 -1.448018,-0.99307 -2.749129,-2.22197 -4.119436,-3.3391 -1.230405,-1.00312 -2.219523,-2.51755 -3.683801,-3.02025 -0.219777,-0.0754 -0.444307,-0.10839 -0.672536,-0.11452 z" style="fill:#040404;fill-opacity:0;stroke:none;stroke-width:.5960061px;stroke-linecap:butt;stroke-linejoin:miter;stroke-opacity:1"/><path style="fill:url(#radialGradient1858);fill-opacity:1;stroke:none;stroke-width:.26500076px;stroke-linecap:butt;stroke-linejoin:miter;stroke-opacity:1" id="path1752" d="m 15.915219,249.83359 c 2.658613,-0.48731 5.518385,-0.38301 7.596478,0.93436 0.568474,0.37294 1.340555,1.29993 1.421801,1.46243 0.08124,0.16248 2.965469,2.47799 2.965469,2.47799 l 3.168585,1.9499 1.787407,0.85308 v 0.44685 c 0,0 -8.002707,1.46243 -8.571427,1.4218 -0.568721,-0.0407 -4.427894,2.11239 -4.427894,2.11239 l -0.365606,4.34664 1.096818,3.49358 -12.2274851,5.64657 -1.5436694,-3.16858 c 0,0 -2.2961306,-4.75794 -2.3630313,-9.48214 -0.066901,-4.72419 0.5907388,-9.15281 3.2161116,-13.18543 1.778228,-2.78607 2.0586823,-4.10011 7.0507692,-7.16403 0.339754,2.6271 0.775402,5.23959 1.195674,7.85459 z"/><path style="fill:url(#radialGradient1794);fill-opacity:1;stroke:none;stroke-width:.60904354px;stroke-linecap:butt;stroke-linejoin:miter;stroke-opacity:1" id="path2512" d="m 18.09471,262.45067 c -1.186587,-0.74817 -1.339162,-0.50436 -3.143026,-1.33559 -1.746622,-0.80848 -2.504817,-0.88503 -2.84196,-2.35344 -0.240292,-1.36257 0.668256,-2.12353 1.694491,-2.52936 2.237465,-0.82718 4.860563,-0.29827 6.927471,0.10764 1.775915,0.35022 3.433233,1.27051 5.232987,1.50685 2.203515,0.28937 5.062713,0.46825 6.666072,-0.12814 0.326035,-0.12126 0.352096,0.70991 0.221163,1.03885 -0.427296,1.07349 -1.789308,1.51842 -2.854127,1.96688 -1.247014,0.52519 -2.675916,0.43306 -3.983271,0.78191 -0.915469,0.24427 -1.931487,0.37902 -2.772497,0.83361 -0.585427,0.31642 -1.282264,0.82306 -1.797926,1.2784 -0.852061,0.75239 -1.145732,2.08372 -0.924441,3.07474 0.119332,0.5344 0.557838,2.17144 1.332418,3.4327 1.285261,2.09281 3.068489,3.93444 2.712396,3.74739 -1.317165,-0.69192 -1.510648,-0.66137 -3.329076,-2.88876 -1.496158,-1.83263 -2.151125,-4.1819 -2.310987,-4.77809"/></g></svg>